<svg id="visual" viewBox="0 0 960 540" width="960" height="540" xmlns="http://www.w3.org/2000/svg" xmlns:xlink="http://www.w3.org/1999/xlink" version="1.1"><g transform="translate(486.4828646955824 267.9221556335641)"><path d="M115.4 -141.4C147.2 -110.8 169.1 -72.3 177.6 -30.4C186 11.4 180.9 56.4 156.7 83.2C132.6 110 89.4 118.4 44.7 143.8C0 169.2 -46.2 211.4 -76.7 203.5C-107.2 195.5 -122 137.2 -143.2 88.5C-164.4 39.8 -192 0.5 -194.2 -42.4C-196.3 -85.3 -173.1 -131.9 -136.4 -161.6C-99.8 -191.3 -49.9 -204.2 -4.1 -199.3C41.8 -194.5 83.6 -171.9 115.4 -141.4" fill="#f872a8"></path></g></svg>