<svg id="visual" viewBox="0 0 960 540" width="960" height="540" xmlns="http://www.w3.org/2000/svg" xmlns:xlink="http://www.w3.org/1999/xlink" version="1.1"><rect x="0" y="0" width="960" height="540" fill="#ffffff"></rect><defs><linearGradient id="grad1_0" x1="43.8%" y1="0%" x2="100%" y2="100%"><stop offset="14.444444444444446%" stop-color="#fd868c" stop-opacity="1"></stop><stop offset="85.55555555555554%" stop-color="#fd868c" stop-opacity="1"></stop></linearGradient></defs><defs><linearGradient id="grad1_1" x1="43.8%" y1="0%" x2="100%" y2="100%"><stop offset="14.444444444444446%" stop-color="#fd868c" stop-opacity="1"></stop><stop offset="85.55555555555554%" stop-color="#ffc4c4" stop-opacity="1"></stop></linearGradient></defs><defs><linearGradient id="grad1_2" x1="43.8%" y1="0%" x2="100%" y2="100%"><stop offset="14.444444444444446%" stop-color="#ffffff" stop-opacity="1"></stop><stop offset="85.55555555555554%" stop-color="#ffc4c4" stop-opacity="1"></stop></linearGradient></defs><defs><linearGradient id="grad2_0" x1="0%" y1="0%" x2="56.3%" y2="100%"><stop offset="14.444444444444446%" stop-color="#fd868c" stop-opacity="1"></stop><stop offset="85.55555555555554%" stop-color="#fd868c" stop-opacity="1"></stop></linearGradient></defs><defs><linearGradient id="grad2_1" x1="0%" y1="0%" x2="56.3%" y2="100%"><stop offset="14.444444444444446%" stop-color="#ffc4c4" stop-opacity="1"></stop><stop offset="85.55555555555554%" stop-color="#fd868c" stop-opacity="1"></stop></linearGradient></defs><defs><linearGradient id="grad2_2" x1="0%" y1="0%" x2="56.3%" y2="100%"><stop offset="14.444444444444446%" stop-color="#ffc4c4" stop-opacity="1"></stop><stop offset="85.55555555555554%" stop-color="#ffffff" stop-opacity="1"></stop></linearGradient></defs><g transform="translate(960, 0)"><path d="M0 275C-30.4 255.5 -60.9 236 -93.8 226.4C-126.6 216.7 -161.9 217.1 -202.9 202.9C-244 188.8 -290.7 160.2 -299.3 124C-308 87.8 -278.5 43.9 -249 0L0 0Z" fill="#ffe1e1"></path><path d="M0 183.3C-20.3 170.3 -40.6 157.3 -62.5 150.9C-84.4 144.5 -107.9 144.7 -135.3 135.3C-162.6 125.9 -193.8 106.8 -199.6 82.7C-205.3 58.5 -185.7 29.3 -166 0L0 0Z" fill="#ffa5a7"></path><path d="M0 91.7C-10.1 85.2 -20.3 78.7 -31.3 75.5C-42.2 72.2 -54 72.4 -67.6 67.6C-81.3 62.9 -96.9 53.4 -99.8 41.3C-102.7 29.3 -92.8 14.6 -83 0L0 0Z" fill="#fd868c"></path></g><g transform="translate(0, 540)"><path d="M0 -249C32 -241.8 63.9 -234.6 93 -224.5C122.1 -214.4 148.3 -201.4 186.7 -186.7C225.1 -171.9 275.7 -155.4 299.3 -124C322.9 -92.6 319.5 -46.3 316 0L0 0Z" fill="#ffe1e1"></path><path d="M0 -166C21.3 -161.2 42.6 -156.4 62 -149.7C81.4 -142.9 98.8 -134.3 124.5 -124.5C150.1 -114.6 183.8 -103.6 199.6 -82.7C215.3 -61.7 213 -30.9 210.7 0L0 0Z" fill="#ffa5a7"></path><path d="M0 -83C10.7 -80.6 21.3 -78.2 31 -74.8C40.7 -71.5 49.4 -67.1 62.2 -62.2C75 -57.3 91.9 -51.8 99.8 -41.3C107.6 -30.9 106.5 -15.4 105.3 0L0 0Z" fill="#fd868c"></path></g></svg>